<svg width="267" height="27" viewBox="0 0 267 27" fill="none" xmlns="http://www.w3.org/2000/svg">
<path fill-rule="evenodd" clip-rule="evenodd" d="M27.9006 0H29.1074C29.5857 0.039586 30.0565 0.118758 30.531 0.19793C29.3055 2.04408 28.0837 3.89023 26.8469 5.72918C27.6353 4.32927 28.4722 2.95816 29.2719 1.56545C27.5008 1.40351 25.6512 1.77417 24.179 2.76383C23.3869 3.28924 22.8526 4.08096 22.322 4.83669C20.8424 7.03192 19.5458 9.33511 18.1036 11.5519C17.0723 13.1426 16.0037 14.7224 14.6884 16.1115C14.0345 16.7701 13.3209 17.4359 12.4129 17.7453C11.617 17.9685 10.7838 17.9649 9.96553 18.0548C10.7577 17.9109 11.6096 17.9469 12.3382 17.5726C13.4629 16.9572 14.2699 15.9424 15.0322 14.9599C17.7486 11.2748 19.5795 7.07511 22.0082 3.22086C19.1386 1.31354 15.4469 0.604587 12.0467 1.36392C9.22571 1.96851 6.67743 3.56994 4.88019 5.73998C3.96849 5.63201 3.04185 5.75077 2.19367 6.07826C3.34824 4.42284 4.86898 3.00134 6.66249 1.9937C9.09867 0.604587 12.0019 0 14.8229 0.273504C17.4609 0.51102 20.0054 1.54386 22.0567 3.15609C23.2375 1.17679 25.6213 0.187134 27.9006 0Z" fill="#005A9C"/>
<path fill-rule="evenodd" clip-rule="evenodd" d="M1.01189 8.1358C0.0105201 10.4678 -0.265978 13.0877 0.2646 15.5636C0.772759 18.0935 2.11041 20.4507 3.99359 22.2752C7.4984 25.8308 13.2638 27.0291 18.0091 25.3197C20.3107 24.4848 22.4517 23.1353 23.9687 21.2532C21.6297 22.2716 18.9843 22.5631 16.451 22.1852C11.8738 21.5051 7.50961 18.8816 5.26773 14.923C4.34482 13.246 3.61621 11.2523 4.24767 9.36296C4.59143 8.45249 5.05475 7.39086 6.1047 7.06697C5.18553 6.73589 4.19536 6.50197 3.20894 6.64952C2.2935 6.77548 1.4117 7.31529 1.01189 8.1358Z" fill="#005A9C"/>
<path fill-rule="evenodd" clip-rule="evenodd" d="M26.6312 8.74853C25.8764 8.8349 25.0955 9.01124 24.4864 9.46828C23.4402 10.224 22.5883 11.1885 21.7588 12.1529C20.3913 13.8012 18.949 15.3882 17.5142 16.9824C16.8304 17.7202 16.0644 18.4543 15.0668 18.7782C13.7702 19.1921 12.3691 19.1705 11.0389 18.9186C11.902 19.4548 12.7651 20.0018 13.703 20.4156C15.3844 20.6208 17.0807 20.1169 18.4857 19.2424C20.6453 17.9541 22.2259 15.9532 24.4229 14.7152C25.1403 14.2654 25.925 13.8875 26.7844 13.7796C28.0921 12.1997 29.3326 10.5731 30.5657 8.94286C29.2691 8.73774 27.9427 8.61178 26.6312 8.74853Z" fill="#005A9C"/>
<path fill-rule="evenodd" clip-rule="evenodd" d="M26.8043 13.7836C28.0785 13.5965 29.3862 13.8592 30.552 14.363C29.0985 16.2272 27.6338 18.0949 25.9487 19.7755C24.5512 21.197 22.4476 21.7008 20.4785 21.7728C18.1619 21.8268 15.8154 21.3805 13.7192 20.4197C15.4006 20.6248 17.097 20.121 18.5019 19.2465C20.6616 17.9581 22.2421 15.9573 24.4391 14.7193C25.1603 14.2694 25.9449 13.888 26.8043 13.7836Z" fill="#FD4236"/>
<path fill-rule="evenodd" clip-rule="evenodd" d="M41.522 2.71319C47.5385 2.70562 53.5591 2.70941 59.5756 2.70941C59.3318 4.52582 59.088 6.34601 58.8442 8.1662C56.8071 8.1662 54.7657 8.1662 52.7286 8.1662C52.0137 13.2105 51.2988 18.2548 50.5839 23.2991C48.1088 23.2991 45.6294 23.2991 43.1501 23.2991C43.865 18.2548 44.5799 13.2105 45.2947 8.1662C42.7823 8.16241 40.27 8.16998 37.7576 8.16241C38.9972 6.34222 40.2741 4.53717 41.522 2.71319ZM61.8277 2.72833C61.1913 8.07159 60.5591 13.4186 59.9269 18.7619C59.7616 20.2794 59.4889 21.7893 59.2699 23.2991C61.7781 23.2991 64.2822 23.2991 66.7905 23.2991C66.9805 22.0087 67.1624 20.7145 67.3524 19.4241C69.7657 19.4204 72.1789 19.4317 74.5921 19.4166C76.778 19.3863 78.9598 17.8802 79.2408 15.8367C79.6747 12.6164 80.1127 9.39606 80.5383 6.17193C80.7325 4.91937 79.9309 3.62896 78.6706 3.1181C77.9763 2.80023 77.1871 2.72455 76.4144 2.73968C71.5549 2.7359 66.6913 2.73211 61.8277 2.72833ZM68.9392 8.16998C70.245 8.16998 71.5508 8.16998 72.8565 8.16998C72.5921 9.888 72.3359 11.606 72.0714 13.3203C72.0549 13.657 71.7615 13.9749 71.3772 13.9598C70.278 13.9825 69.183 13.9598 68.0838 13.9636C68.3731 12.0336 68.6417 10.0999 68.9392 8.16998ZM86.1292 3.83331C86.3813 3.10675 87.216 2.68292 88.0259 2.70941C91.5961 2.71319 95.1705 2.70562 98.7407 2.71319C99.4266 2.67535 100.166 3.09539 100.179 3.77655C100.972 10.2853 101.757 16.7941 102.546 23.2991C100.005 23.2991 97.4638 23.2991 94.9225 23.2991C94.7862 22.1071 94.6539 20.9151 94.5176 19.7193C92.1044 19.7382 89.687 19.7723 87.2697 19.795C86.8317 20.9492 86.435 22.1223 85.9763 23.2727C85.1375 23.1932 84.2904 23.2575 83.4515 23.2386C81.7656 23.2537 80.0838 23.2083 78.402 23.2613C80.9474 16.7752 83.559 10.308 86.1292 3.83331ZM91.7242 8.90411C90.9515 10.7924 90.1787 12.6845 89.4102 14.5728C90.906 14.5728 92.4019 14.5728 93.8977 14.5728C93.6746 12.6845 93.4391 10.7962 93.2118 8.90411C92.7159 8.90411 92.2201 8.90411 91.7242 8.90411ZM107.369 2.70941C109.873 2.70941 112.373 2.70941 114.877 2.70941C114.505 5.29022 114.141 7.87482 113.774 10.4556C115.187 10.4594 116.6 10.4556 118.013 10.4594C118.389 7.87482 118.749 5.29022 119.121 2.70562C121.761 2.70941 124.406 2.70184 127.046 2.70941C126.083 9.57013 125.133 16.4346 124.17 23.2954C121.53 23.2954 118.893 23.2954 116.253 23.2954C116.596 20.8546 116.947 18.4138 117.29 15.973C115.877 15.973 114.46 15.973 113.046 15.973C112.699 18.4138 112.352 20.8546 112.009 23.2954C109.509 23.2954 107.005 23.2954 104.501 23.2954C105.456 16.4384 106.414 9.57391 107.369 2.70941ZM150.852 2.70941C153.352 2.71319 155.852 2.70941 158.352 2.70941C157.988 5.294 157.616 7.87482 157.253 10.4594C158.666 10.4594 160.083 10.4594 161.496 10.4594C161.868 7.87482 162.228 5.29022 162.604 2.70562C165.244 2.70941 167.885 2.70562 170.525 2.70941C169.567 9.57391 168.612 16.4346 167.653 23.2991C165.013 23.2991 162.373 23.2991 159.732 23.2991C160.083 20.8583 160.426 18.4175 160.773 15.9805C159.356 15.9805 157.943 15.9805 156.525 15.9805C156.178 18.4213 155.831 20.8621 155.484 23.3029C152.984 23.3029 150.48 23.3029 147.976 23.3029C148.939 16.4384 149.893 9.57013 150.852 2.70941ZM225.736 2.70941C233.157 2.70941 240.575 2.70562 247.996 2.70941C246.789 4.5296 245.583 6.34979 244.38 8.1662C242.591 8.1662 240.802 8.1662 239.017 8.1662C238.294 13.2105 237.583 18.2548 236.868 23.2991C234.389 23.3029 231.909 23.2991 229.434 23.2991C230.145 18.2548 230.864 13.2105 231.575 8.1662C229.38 8.1662 227.194 8.1662 225 8.1662C225.244 6.34979 225.488 4.5296 225.736 2.70941ZM249.186 2.70941C248.223 9.55878 247.256 16.4044 246.331 23.2575C247.459 23.2083 248.591 23.2537 249.723 23.2386C253.591 23.2613 257.463 23.197 261.335 23.2727C262.913 23.1591 264.45 22.3417 265.223 21.0589C265.711 20.2869 265.727 19.3712 265.864 18.5084C266.248 15.8367 266.591 13.1575 267 10.4897V9.85394C266.888 8.7868 266.132 7.81805 265.074 7.36774C264.062 6.89093 262.893 6.98553 261.798 6.98175C259.888 6.98175 257.984 6.98175 256.074 6.98175C256.285 5.5589 256.5 4.13604 256.711 2.71319C254.203 2.70941 251.694 2.70941 249.186 2.70941ZM254.55 17.8613C254.814 16.0562 255.079 14.2512 255.343 12.4461C256.641 12.4461 257.938 12.4461 259.236 12.4461C258.979 14.0355 258.798 15.6362 258.463 17.2104C258.384 17.4526 258.335 17.884 257.963 17.8499C256.826 17.8764 255.69 17.8537 254.55 17.8613ZM128.757 7.27313C128.216 10.9665 127.716 14.6636 127.183 18.3608C127.013 19.303 127.088 20.3059 127.608 21.1497C128.389 22.4969 130.026 23.2764 131.654 23.3824H140.765C143.269 23.1024 145.674 21.479 146.261 19.1668C146.509 17.9445 146.596 16.7033 146.782 15.4735C144.286 15.4735 141.794 15.4735 139.302 15.4735C139.191 16.1433 139.079 16.8131 138.976 17.4829C137.554 17.4904 136.137 17.4791 134.72 17.4904C135.162 14.395 135.67 11.3071 136.108 8.21161C137.55 8.22674 138.992 8.23053 140.435 8.24188C140.327 8.91168 140.224 9.58527 140.116 10.2589C142.604 10.2589 145.088 10.2589 147.579 10.2589C147.732 8.99115 147.939 7.72345 148.075 6.45196C148.17 5.52862 147.811 4.5523 147.034 3.94305C145.906 3.04998 144.352 2.79266 142.902 2.79644C140.154 2.8078 137.402 2.78131 134.654 2.8078C131.914 2.88726 129.195 4.72638 128.757 7.27313ZM173.038 2.79644C172.083 9.65717 171.125 16.5179 170.17 23.3786H188.525C188.769 21.5811 189.013 19.7799 189.253 17.9824C185.633 17.9786 182.013 17.9824 178.393 17.9824C178.521 17.1271 178.653 16.2757 178.786 15.4205C182.397 15.4129 186.005 15.3864 189.612 15.3864C189.831 13.8311 190.05 12.2796 190.269 10.7243C186.658 10.7281 183.042 10.7584 179.43 10.7584C179.558 9.90314 179.691 9.0517 179.823 8.19647C183.439 8.19647 187.05 8.19647 190.666 8.19647C190.91 6.3952 191.153 4.59771 191.393 2.79644C185.277 2.79644 179.158 2.79644 173.038 2.79644ZM193.542 5.10101C194.368 3.65545 196.153 2.77752 197.918 2.8078C204.645 2.81158 211.368 2.80401 218.091 2.81158C219.302 2.82672 220.612 2.70562 221.703 3.29217C222.876 3.85223 223.554 5.1048 223.364 6.29681C222.942 9.47931 222.513 12.658 222.087 15.8367C221.847 17.8953 219.674 19.4431 217.48 19.4885C215.046 19.5036 212.612 19.4885 210.182 19.4923C209.996 20.7864 209.802 22.0806 209.62 23.3748H202.087C202.31 22.0806 202.488 20.7789 202.69 19.4809C200.389 19.4809 198.087 19.4809 195.786 19.4809C195.075 19.4809 194.352 19.3977 193.711 19.1025C192.674 18.656 191.885 17.7137 191.786 16.6579C191.724 15.9313 191.905 15.2123 191.992 14.4896C192.327 12.0639 192.666 9.63824 193 7.21258C193.091 6.50116 193.153 5.74811 193.542 5.10101ZM199.525 14.0279C200.819 14.0279 202.112 14.0279 203.405 14.0279C203.74 12.1017 204.021 10.168 204.24 8.23053C202.934 8.23053 201.628 8.23053 200.327 8.23053C200.058 10.1642 199.79 12.0942 199.525 14.0279ZM210.914 14.0392C212.038 14.0317 213.161 14.0544 214.285 14.0317C214.645 14.0544 214.889 13.7479 214.893 13.4413C215.157 11.7082 215.418 9.97882 215.682 8.24945C214.372 8.24945 213.066 8.24945 211.761 8.24945C211.476 10.1756 211.195 12.1093 210.914 14.0392Z" fill="#005A9C"/>
</svg>
